<svg xmlns="http://www.w3.org/2000/svg" width="100" height="100" viewBox="0 0 100 100">
  <g id="icon-tips" transform="translate(-27 10)">
    <rect id="icon_area" data-name="icon area" width="100" height="100" transform="translate(27 -10)" opacity="0"/>
    <path id="Path_13457" data-name="Path 13457" d="M1041.92,504.454a12.781,12.781,0,0,0-1.342-.031c-.45.035-.535-.144-.535-.553a47.454,47.454,0,0,0-.073-4.786,8.792,8.792,0,0,0-5.912-7.854c-2.539-.977-5.13-1.823-7.7-2.724-.965-.34-1.042-.434-1.074-1.464,0-.06-.014-.12-.028-.235-.2.087-.383.162-.556.247-1.011.505-2.015,1.025-3.038,1.511a.608.608,0,0,0-.422.664c.032.572-.005,1.146.013,1.72a1.129,1.129,0,0,1-.663,1.121c-2.315,1.252-4.616,2.532-6.939,3.77a.854.854,0,0,0-.521.9c.021,2.636,0,5.271.019,7.906,0,.381-.1.508-.493.508-1.376,0-1.376.014-1.376-1.346,0-2.636.012-5.271-.009-7.906a1.3,1.3,0,0,1,.769-1.294c2.336-1.246,4.652-2.53,6.983-3.784a.62.62,0,0,0,.388-.65c-.023-.619,0-1.241-.009-1.86a.968.968,0,0,1,.585-.973c1.909-.955,3.819-1.919,5.729-2.865a.927.927,0,0,1,1.421.9c.015.475-.111,1.061.12,1.389.219.312.821.359,1.256.514,2,.706,4.012,1.372,5.994,2.121a10.852,10.852,0,0,1,7.321,9.3,3.167,3.167,0,0,0,.091.356ZM1016.9,460.968a3.5,3.5,0,0,1-.349.075q-3.03.293-6.06.581a.779.779,0,0,0-.81.745v.029c-.215,2.246-.428,4.493-.625,6.739-.069.787.218,1.08,1.008,1.08h16.08c.791,0,1.077-.293,1.009-1.08-.2-2.235-.409-4.468-.622-6.7a.788.788,0,0,0-.757-.816h-.056q-2.329-.252-4.66-.491c-.582-.06-1.166-.107-1.749-.16Zm-6.01,5.6c.1-1.037.2-2.074.292-3.112.018-.215.059-.324.309-.357a42.57,42.57,0,0,1,11.025-.242c.742.094,1.487.157,2.227.257a.384.384,0,0,1,.266.246c.171,1.7.322,3.4.477,5.106a.6.6,0,0,1-.019.112h-14.748c.058-.686.108-1.348.17-2.011m14.689,5.072c0,1.2-.03,2.407.006,3.61a7.525,7.525,0,0,1-1.915,5.214c-2.73,3.244-6.829,3.716-10,1.1a7.675,7.675,0,0,1-3.045-6.337c.03-1.2.005-2.407.005-3.61V471.2h-1.564c0,1.807,0,3.583.005,5.36a3.325,3.325,0,0,0,.1.673,9.532,9.532,0,0,0,5.092,6.59,7.582,7.582,0,0,0,4.387,1,9.185,9.185,0,0,0,5.578-2.642,8.749,8.749,0,0,0,2.94-6.769c-.028-1.273-.005-2.54-.006-3.81,0-.14-.014-.28-.021-.413h-1.566Zm-8.069,16.425a1.018,1.018,0,0,0-.521-.7q-3.288-1.515-6.613-2.951a.9.9,0,0,0-1.3.9,7.57,7.57,0,0,0,0,.976c.042.4-.126.563-.494.689-2.383.821-4.786,1.6-7.129,2.523a10.578,10.578,0,0,0-7.041,9.277c-.21,1.978-.081,3.993-.1,5.989v.563h1.85v-.568c0-1.562-.013-3.131,0-4.7a9.427,9.427,0,0,1,.128-1.617,9.1,9.1,0,0,1,6.363-7.425c2.486-.857,4.965-1.736,7.446-2.6a1.026,1.026,0,0,0,.83-1.173v-.565c1.6.709,3.108,1.374,4.611,2.061.095.043.153.252.158.386.019.474.007.949.007,1.442h1.835c0-.868.041-1.693-.024-2.506m14.495,12.847a.884.884,0,0,0,.982-.775A.779.779,0,0,0,1033,500a.906.906,0,0,0-.881-.93.994.994,0,0,0-.122.005q-2.832-.012-5.665,0a.915.915,0,0,0-.99.831c0,.034,0,.068,0,.1a.9.9,0,0,0,.883.914.837.837,0,0,0,.122-.006c.928.007,1.857,0,2.786,0,.959,0,1.919.006,2.879,0m-12.445-3.11a1.456,1.456,0,1,0-1.484,1.428h.016a1.443,1.443,0,0,0,1.467-1.419V497.8m-2.912,5.892a1.456,1.456,0,1,0,1.448-1.463,1.457,1.457,0,0,0-1.448,1.463" transform="translate(-941.294 -429.925)"/>
  </g>
</svg>
