<svg xmlns="http://www.w3.org/2000/svg" width="100" height="100" viewBox="0 0 100 100">
  <g id="ico-bars" transform="translate(-25 -2)">
    <rect id="icon_area" data-name="icon area" width="100" height="100" transform="translate(25 2)" fill="none"/>
    <path id="bars" d="M708.732,150.487l-10.5,10.327c-2.59-2.127-5.159-4.226-7.718-6.338-5.7-4.708-11.449-9.365-17.062-14.173a20.837,20.837,0,0,1-3.577-4.457,4.111,4.111,0,0,1-.176-3.876,1.739,1.739,0,0,0-.2-1.462c-2.125-2.674-4.323-5.292-6.539-7.977,2.286-2.247,4.511-4.437,6.845-6.733q3.234,2.589,6.436,5.15a20.273,20.273,0,0,0,1.832,1.421,1.427,1.427,0,0,0,1.131.187,4.676,4.676,0,0,1,4.969.542,28.1,28.1,0,0,1,4.6,4.122C695.448,134.9,702.026,142.649,708.732,150.487Zm-2.725-.139c-6.445-7.531-12.84-15-19.263-22.508l-11.57,11.383,22.906,18.925Zm-20.638-24.161a32.2,32.2,0,0,0-2.95-1.83,2.509,2.509,0,0,0-3.067.556c-2.393,2.387-4.81,4.752-7.225,7.118a2.262,2.262,0,0,0-.566,2.761,34.574,34.574,0,0,0,1.924,3.086Zm-13.86,3.551c1.91-1.878,3.715-3.655,5.621-5.53l-7.167-5.761c-1.461,1.438-2.853,2.809-4.309,4.241Zm19.613-9.393a.768.768,0,0,1-.682-.408c-2.13-4.041-7.489-5.754-11.945-3.821a.773.773,0,0,1-1.013-.387.751.751,0,0,1,.381-.99l.012,0c5.184-2.25,11.432-.228,13.928,4.508a.749.749,0,0,1-.313,1.011l-.015.007A.772.772,0,0,1,691.122,120.345Zm-3.716,1.122a.523.523,0,0,1-.441-.238c-1.263-1.944-4.248-2.559-6.244-1.913a.527.527,0,0,1-.661-.329.512.512,0,0,1,.325-.647l.009,0c2.359-.763,5.879-.086,7.453,2.338a.51.51,0,0,1-.149.706l-.01.006A.519.519,0,0,1,687.406,121.467ZM666.6,143.906a.773.773,0,0,1-.353-.086,10.609,10.609,0,0,1-4.583-13.7.776.776,0,0,1,1.013-.386.751.751,0,0,1,.4.984l-.007.016a9.088,9.088,0,0,0,3.884,11.752.75.75,0,0,1,.334,1.007l-.006.011A.772.772,0,0,1,666.6,143.906Zm1.385-3.9a.529.529,0,0,1-.282-.081c-2.464-1.548-3.152-5.012-2.376-7.333a.527.527,0,0,1,.661-.329.515.515,0,0,1,.335.647v0c-.657,1.964-.031,4.9,1.945,6.142a.511.511,0,0,1,.164.705l0,.007A.525.525,0,0,1,667.981,140.006Z" transform="translate(-609.709 -77.314)"/>
  </g>
</svg>
