<svg xmlns="http://www.w3.org/2000/svg" width="100" height="100" viewBox="0 0 100 100">
  <g id="icon-golf" transform="translate(-27 10)">
    <rect id="icon_area" data-name="icon area" width="100" height="100" transform="translate(27 -10)" opacity="0"/>
    <g id="ico-golf" transform="translate(1.87 -12)">
      <path id="golf" d="M864.392,412.012h0a7.46,7.46,0,0,0-.548-.912l-2.212-3.385c-2.041-3.114-4.355-6.645-6.584-10.13a1.574,1.574,0,0,1-.169-1.039c.585-2.485,1.225-5.008,1.857-7.5l.761-3.013a3.135,3.135,0,0,0-.2-2.507,3.052,3.052,0,0,0-.808-.76,4.383,4.383,0,0,0-.415-8.735h-.021a4.378,4.378,0,0,0-3.129,7.454,4.256,4.256,0,0,0,.667.564c-1.862-.262-3.974-.438-6.034-.616l-.329-.026c-2.427-.2-4.929-.412-6.971-.746q8.693-5.854,17.4-11.7a.817.817,0,0,0,.134.657l.375.541c.271.39.529.767.8,1.119a1.863,1.863,0,0,0,2.558.628c.037-.023.074-.048.112-.073a1.96,1.96,0,0,0,.684-2.687h0c-.034-.056-.07-.11-.1-.15-.438-.681-.895-1.363-1.294-1.946l-.565-.829a.8.8,0,0,0-1.079-.261l-.353.2c-.193.109-.372.21-.548.329q-9.664,6.488-19.331,13l-.207.145a1.579,1.579,0,0,0-.614-.12,1.343,1.343,0,0,0-1.151.76.8.8,0,0,0,.2,1.057,2.07,2.07,0,0,0,.071,1.684,3.417,3.417,0,0,0,2.016,1.776c1.894.438,3.834.782,5.7,1.119l2.308.422.139.031c-.152.635-.3,1.273-.444,1.908l-.077.335c-.5,2.183-1.01,4.442-1.7,6.635a22.531,22.531,0,0,0-.5,11.225c.251,1.389.425,2.864.579,4.162l.008.06c.079.657.159,1.33.246,1.983a6.76,6.76,0,0,0,.186.966,2.823,2.823,0,0,0,3.262,2.146,2.787,2.787,0,0,0,2.4-3.045c-.134-1.314-.308-2.656-.483-4l-.009-.067c-.164-1.253-.335-2.547-.463-3.822-.053-.518-.142-1.039-.219-1.516a8.575,8.575,0,0,1-.211-2.684q4.49,6.911,8.969,13.824a3.15,3.15,0,0,0,2.7,1.753h.039a2.9,2.9,0,0,0,2.6-4.211Zm-4.956-44.252.212.312c.416.617.817,1.211,1.23,1.85a.314.314,0,0,1,.09.219.308.308,0,0,1-.093.219.429.429,0,0,1-.135.087c-.138.094-.228.154-.484-.185s-.528-.726-.767-1.077l-.374-.535a.8.8,0,0,0-.52-.329c.231-.157.463-.311.7-.467.047-.03.1-.06.146-.09Zm-9.755,30.122a.814.814,0,0,0-.663.463,8.136,8.136,0,0,0-.329,5.271c.074.429.159.917.207,1.389.138,1.34.318,2.718.477,3.933l.039.3c.156,1.2.315,2.433.438,3.657a1.1,1.1,0,0,1-.229.814,1.145,1.145,0,0,1-.79.422,1.223,1.223,0,0,1-1.448-.947h0a5.391,5.391,0,0,1-.14-.745c-.081-.608-.155-1.215-.227-1.82l-.024-.2c-.167-1.4-.337-2.838-.6-4.272a20.893,20.893,0,0,1,.455-10.406c.7-2.2,1.224-4.5,1.729-6.714l.014-.059c.227-1,.458-2.019.705-3.029a.848.848,0,0,0-.1-.633.81.81,0,0,0-.509-.369l-.367-.091c-.243-.064-.458-.115-.675-.156l-2.226-.41c-1.957-.349-3.867-.7-5.665-1.105a1.808,1.808,0,0,1-.938-.885.592.592,0,0,1,.015-.471.8.8,0,0,0,.538.363c2.216.414,5.017.647,7.725.876l.058.005c2.57.219,5.477.458,7.717.876a1.551,1.551,0,0,1,1.052.493,1.6,1.6,0,0,1,0,1.176l-.767,3.031c-.623,2.452-1.266,4.988-1.862,7.531a3.224,3.224,0,0,0,.38,2.311c2.164,3.376,4.4,6.791,6.559,10.09l2.266,3.457a5.765,5.765,0,0,1,.426.712,1.283,1.283,0,0,1-.038,1.244,1.3,1.3,0,0,1-1.1.591c-.581.015-.934-.329-1.379-1.01q-4.643-7.178-9.31-14.349c-.144-.219-.3-.438-.463-.657l-.231-.322a.811.811,0,0,0-.657-.342h-.072Zm6.327-16.742a2.73,2.73,0,1,1,.016-5.46h.016a2.73,2.73,0,0,1,1.947.864,2.632,2.632,0,0,1,.737,1.9,2.776,2.776,0,0,1-2.716,2.7Z" transform="translate(-775.825 -331.036)"/>
    </g>
  </g>
</svg>
