<svg xmlns="http://www.w3.org/2000/svg" width="100" height="100" viewBox="0 0 100 100">
  <g id="icon-landsports" transform="translate(-26 10)">
    <rect id="icon_area" data-name="icon area" width="100" height="100" transform="translate(26 -10)" opacity="0"/>
    <g id="ico-landsports" transform="translate(1.345 -12)">
      <path id="landsports" d="M949,403.4a1.792,1.792,0,0,1-1.724,1.79,1.768,1.768,0,0,1-1.821-1.8,1.746,1.746,0,0,1,1.714-1.782A1.766,1.766,0,0,1,949,403.4Zm-7.072-14.578-.529,1.124.384.144a.8.8,0,0,1,.469.466c.712,1.867.626,2.573-.62,3.716-.009,1.9-.553,2.634-2.279,3.05l-.79,1.586a.8.8,0,0,1-1.051.374l-1.275-.577a.8.8,0,0,1-.426-1c.088-.251.281-.764.478-1.286.177-.471.359-.955.464-1.245-.011-.21-.187-1.182-2.41-2a12.587,12.587,0,0,1-4.822-2.663c-.529-.514-1.11-.982-1.725-1.477l-.188-.151-.812,1.162-2.933,4.086.016.012c.457.337.892.658,1.331.973l.829.593c1.469,1.053,2.987,2.141,4.491,3.193a4.018,4.018,0,0,1,1.531,1.981c1.036,2.878,2.1,5.8,3.133,8.625l1.054,2.892c.018.05.038.1.057.15a3.939,3.939,0,0,1,.158.462,2.43,2.43,0,0,1-1.455,3.038,2.629,2.629,0,0,1-.883.156,2.469,2.469,0,0,1-2.224-1.424c-.624-1.26-1.233-2.549-1.822-3.8q-.3-.641-.606-1.281-.374-.786-.742-1.574c-.585-1.249-1.19-2.538-1.82-3.784a2.2,2.2,0,0,0-.751-.819c-1.558-.971-3.167-1.924-4.724-2.846l-.984-.583c-.156.7-.307,1.369-.448,2.045-.259,1.239-.5,2.45-.7,3.472a3.4,3.4,0,0,1-1.346,2.217q-2.411,1.751-4.817,3.51-2.226,1.624-4.454,3.246a2.916,2.916,0,0,1-1.119.553,2.387,2.387,0,0,1-2.536-.937,2.423,2.423,0,0,1,.021-2.876,5.174,5.174,0,0,1,.74-.763l1.5-1.352c1.778-1.6,3.615-3.252,5.442-4.858a1.736,1.736,0,0,0,.658-1.31c.226-2.854.537-5.7.841-8.359a6.181,6.181,0,0,1,.594-2c.87-1.762,1.769-3.543,2.64-5.264q.971-1.925,1.938-3.852a5.1,5.1,0,0,1,4.694-3.047,4.433,4.433,0,0,1-.889-2.716,4.626,4.626,0,0,1,4.564-4.607h0a4.629,4.629,0,0,1,4.607,4.579,4.565,4.565,0,0,1-4.459,4.585c1.6,1.32,3.27,2.72,4.921,4.19a7.038,7.038,0,0,0,3.1,1.744c.994.239,1.948.524,2.958.824l1,.294a5.548,5.548,0,0,0-.043-4.968,6.25,6.25,0,0,1,3.629-8.192,4.143,4.143,0,0,1,5.287,2.271,6.318,6.318,0,0,1-4,8.447C943.658,387.318,942.5,387.652,941.932,388.821Zm-17.1-11a2.848,2.848,0,0,0,.832,2.05,3.01,3.01,0,0,0,2.155.889h0a2.958,2.958,0,0,0,2.114-.882,2.912,2.912,0,0,0,.855-2.088,3.016,3.016,0,0,0-3-2.985h0A3.013,3.013,0,0,0,924.831,377.821Zm16.052,13.646-1.124-.422c-.441-.127-.875-.256-1.3-.384-.989-.3-1.924-.573-2.876-.8a8.66,8.66,0,0,1-3.79-2.105c-1.933-1.723-3.907-3.36-5.752-4.874a3.077,3.077,0,0,0-3.114-.552,3.56,3.56,0,0,0-2.065,1.958q-.965,1.933-1.943,3.859c-.868,1.719-1.766,3.5-2.633,5.251a4.635,4.635,0,0,0-.439,1.476c-.3,2.639-.612,5.472-.835,8.3a3.316,3.316,0,0,1-1.2,2.391c-1.82,1.6-3.654,3.252-5.429,4.848l-1.509,1.356a3.81,3.81,0,0,0-.517.52.822.822,0,0,0-.011.975.791.791,0,0,0,.919.3,1.755,1.755,0,0,0,.49-.279q2.227-1.617,4.451-3.242,2.41-1.759,4.821-3.512a1.818,1.818,0,0,0,.714-1.224c.2-1.027.438-2.245.7-3.495.144-.692.3-1.382.459-2.1q.107-.48.218-.977a.8.8,0,0,1,1.115-.559c.086.039.163.07.231.1a3.645,3.645,0,0,1,.446.214q.677.4,1.355.8c1.564.927,3.183,1.885,4.754,2.865a3.836,3.836,0,0,1,1.336,1.458c.64,1.267,1.251,2.568,1.841,3.827q.368.784.738,1.566c.2.427.406.856.609,1.284.586,1.241,1.192,2.523,1.809,3.769a.849.849,0,0,0,1.125.469.86.86,0,0,0,.44-1.122,2.886,2.886,0,0,0-.1-.278c-.025-.062-.049-.125-.072-.188l-1.054-2.891c-1.032-2.827-2.1-5.75-3.136-8.63a2.389,2.389,0,0,0-.938-1.21c-1.512-1.058-3.034-2.149-4.506-3.2l-.829-.593c-.445-.319-.886-.645-1.349-.987l-.651-.479a.8.8,0,0,1-.179-1.115l1.3-1.818,2.091-2.909,1.3-1.862a.8.8,0,0,1,1.174-.156c.281.235.563.462.842.687.616.5,1.253,1.01,1.835,1.576a11.159,11.159,0,0,0,4.254,2.307c3.891,1.425,3.459,3.74,3.439,3.839a.868.868,0,0,1-.029.1c-.065.184-.176.482-.3.815l.08-.163a.805.805,0,0,1,.564-.431c1.416-.279,1.413-.37,1.37-1.893a.808.808,0,0,1,.28-.632C941.18,392.553,941.26,392.483,940.882,391.467Zm4.467-6.349a5.043,5.043,0,0,0,2.2-5.5,2.745,2.745,0,0,0-4.06-1.779,5.071,5.071,0,0,0-2.348,6.007A2.81,2.81,0,0,0,945.349,385.118Z" transform="translate(-851.923 -334.703)"/>
    </g>
  </g>
</svg>
