<svg xmlns="http://www.w3.org/2000/svg" width="140.57" height="36.489" viewBox="0 0 140.57 36.489">
  <path id="NEW_Sandals_logo" data-name="NEW Sandals logo" d="M68.369,31.222a1.009,1.009,0,0,1-.589-.947c0-1.958,3.3-6.36,6.7-8.287a32.676,32.676,0,0,0-.234,3.815,20.309,20.309,0,0,1-5.879,5.419M114.785,8.774c.345,1.783-1.111,7.315-5.107,13.256.573-4.724,2.461-10.127,5.107-13.256M15.753,6.036a2.7,2.7,0,0,1,2.585,1.276c1.409.164,6.712-3.033,6.712-5.349C25.051.838,23.886,0,21.67,0,15.664,0,7.343,5.307,7.343,10.154c0,5.847,6.83,14.076,6.83,17.577,0,1.317-1.426,2.323-3.759,2.312-1.556-.007-2.935-.707-3.2-1.669C4.833,28.162,0,31.377,0,34.033,0,35.368,1.312,36.1,3.761,36.1c5.748,0,16.754-5.18,16.754-10.193,0-5.463-7.785-13.42-7.785-17.778,0-1.185,1.07-2.088,3.024-2.088m110.83,22.975c.133-2.946-.534-7.073.74-9.928-.064-.3-.63-.471-1.4-.471a3.8,3.8,0,0,0-3.61,1.82C117.06,27.779,113.857,30.8,111.868,30.8c-1.232,0-2.155-1.3-2.338-4.644,4.907-5.723,8.983-13.355,8.983-18.179,0-2.229-.791-3.527-3-4.157a2.911,2.911,0,0,0-1.92-.114c-5.649,4.784-8.354,14.627-8.211,22.2-2.389,2.795-4.466,4.181-5.454,4.181-.805,0-1.506-.987-1.464-4.475a3.816,3.816,0,0,0-1.425-.256A4.423,4.423,0,0,0,94,26.406a42.292,42.292,0,0,0-6.584,5.886c1.037-4.01,6.656-9.529,11.5-10.966.157-.642-1.009-3.33-2.688-3.33-1.231,0-4.423,1.345-7.887,4.81-3.213,3.213-5.47,6.708-7.884,6.708-1.254,0-2.171-1.342-2.18-4.52,2.755-5.142,6.259-15.01,6.259-19.048a2.187,2.187,0,0,0-1.116-2.077,4.4,4.4,0,0,0-1.775-.613c-3.128,2.929-5.715,9.967-6.824,16.373a2.458,2.458,0,0,0-1.961-1.06c-1,0-2.788.969-4.711,2.892-3.167,3.167-5.1,7.345-6.861,7.345-1.44,0-2.915-2.467-3.749-9.037a1.859,1.859,0,0,0-.893-.192,2.209,2.209,0,0,0-2.3,1.429A58.825,58.825,0,0,1,48.025,30a40.911,40.911,0,0,0,2.32-9.762c0-1.358-2.777-2.062-3.7-1.792-3.4,7.652-7.254,11.818-8.882,11.818-.99,0-1.611-1.1-1.569-4.7a3.716,3.716,0,0,0-1.425-.264,4.338,4.338,0,0,0-3.042,1.081,42.752,42.752,0,0,0-6.585,6.063C26.182,28.319,31.783,22.494,36.625,21c.255-.69-.96-3.438-2.676-3.438-1.269,0-4.2,1.436-6.935,4.166-3.518,3.517-6.129,8.384-6.129,11.759,0,1.376,2.637,3.03,3.714,3.005a40.9,40.9,0,0,1,7.611-6.734c.377,3.859,1.944,5.446,3.326,5.446,2.372,0,6.32-4.028,8.944-8.416C43.856,29.337,43.1,32.1,42.6,33.751a4.149,4.149,0,0,0,3.037,1.817c1.11,0,5.484-5.1,8.514-9.629.49,4.388,2.511,8.073,4.643,8.073,1.465,0,2.843-1.346,4.451-3.5-.388,2.406,1.133,4.225,3.775,5.179,1.478-.485,4.941-3.336,7.547-6.661.65,3.234,2.189,5.059,3.672,5.059,1.345,0,3.094-.97,5.3-3.2a8.65,8.65,0,0,0-.385,2.4c0,1.349,2.619,2.943,3.714,2.918a40.567,40.567,0,0,1,7.612-6.537c.379,3.712,1.967,5.293,3.48,5.293,1.763,0,4.581-2.089,7.745-5.6.77,4.183,2.8,5.692,4.9,5.692,2.55,0,6.187-2.86,11.538-10.252-.171,1.942.388,4.755.077,5.811a13.841,13.841,0,0,0-4.7,3.348,2.08,2.08,0,0,0,2.128,2.127,7.228,7.228,0,0,0,6.379-4.351,15.064,15.064,0,0,1,3.775-.524c2.762,0,4.853.921,5.271,2.672.7.264,2.772-.534,4.278-2.04a3.424,3.424,0,0,0,1.22-2.253c0-1.143-1.232-2.124-4.25-2.124a31.988,31.988,0,0,0-9.736,1.538m5.589,5.353c0-.3-.2-.5-.594-.5h-.528v1.623h.218v-.613h.312l.383.613h.255l-.405-.645a.476.476,0,0,0,.359-.477m-.6.311h-.306V34.06h.306c.257,0,.373.125.373.305s-.116.311-.373.311m-.029-1.4a1.409,1.409,0,1,0,1.445,1.412,1.4,1.4,0,0,0-1.445-1.412m0,2.626a1.218,1.218,0,0,1,0-2.435,1.218,1.218,0,1,1,0,2.435" fill="#fff"/>
</svg>
