<svg xmlns="http://www.w3.org/2000/svg" width="100" height="100" viewBox="0 0 100 100">
  <g id="icon-scuba" transform="translate(-26 10)">
    <rect id="icon_area" data-name="icon area" width="100" height="100" transform="translate(26 -10)" opacity="0"/>
    <g id="ico-scuba" transform="translate(3.938 -12)">
      <path id="scuba" d="M368.05,375.432a4.611,4.611,0,0,1-.172-.62.788.788,0,0,0-.092-.253l-.311-.537a.725.725,0,0,0-.222-.245c-1.8-1.247-4.926,2.024-5.336,2.561h0c-1.2,1.567-2.178,2.394-2.916,2.458-.592.059-1.174-.43-2.023-1.213a11.765,11.765,0,0,0-1.625-1.332c-.55-.35-1.06-.7-1.545-1.044a4.911,4.911,0,0,0,1.1.134,4.68,4.68,0,0,0,2.424-.673,5.023,5.023,0,0,0,2.287-3.1,5.087,5.087,0,0,0-.509-3.8,4.857,4.857,0,0,0-6.614-1.856c-.041.023-.081.046-.12.07a5.164,5.164,0,0,0-1.994,6.269l-.023-.021a2.707,2.707,0,0,0-3.819-.262c-.056.049-.111.1-.162.155-.238.227-.469.462-.688.71-1.225,1.37-2.592,2.692-3.916,3.973-2.729,2.635-5.55,5.358-7.418,8.786-.044.081-.088.149-.131.227a10.374,10.374,0,0,1-5.965-2.2,10.931,10.931,0,0,1-3.736-4.84,1.438,1.438,0,0,0-1.737-1.057,1.386,1.386,0,0,0-.228.076,26.629,26.629,0,0,1-3.238.813,17.265,17.265,0,0,1-9.364-.5,1.453,1.453,0,0,0-.882,0c-.053.012-.107.025-.155.031a.776.776,0,0,0-.537.476.922.922,0,0,0,.048.783,1.393,1.393,0,0,0,.568.744l.7.4a19.17,19.17,0,0,0,2.655,1.354,15.942,15.942,0,0,0,7.186.859c.215.271.406.562.6.859.171.259.341.518.525.765a30.557,30.557,0,0,0,4.7,5.262q-4.433.069-8.881.084c-.63,0-1.086.005-1.412.391s-.265.859-.186,1.451a16.688,16.688,0,0,1-3.221,12.658,3.322,3.322,0,0,0-.322.555l-.092.188a1.271,1.271,0,0,0,.141.98.732.732,0,0,0,.513.352,2.152,2.152,0,0,0,.322.027,2.687,2.687,0,0,0,1.752-.832l.2-.17a12.632,12.632,0,0,0,4.089-6.31c.246-.813.43-1.644.618-2.49.042-.189.083-.38.127-.57.163,0,.33-.005.5-.014,1-.052,1.914-.143,2.792-.229a22.275,22.275,0,0,1,5.844-.049c6.257.927,6.8.51,12.049-5.262l1.3-1.421A17.493,17.493,0,0,1,345,386.161a16.925,16.925,0,0,0,4.081-3.436c.537-.66,1.033-1.362,1.532-2.069l.3-.419.228.144c2.561,1.618,5.456,3.359,7.4,3.534,2.647.243,3.46-.724,4.59-2.059a16.475,16.475,0,0,1,4.333-3.777A2.013,2.013,0,0,0,368.05,375.432Zm-14.937-8.149a3.344,3.344,0,0,1,1.726-.476,3.459,3.459,0,0,1,3,1.723,3.6,3.6,0,0,1-1.252,4.834,3.307,3.307,0,0,1-2.6.343,3.371,3.371,0,0,1-2.071-1.6,3.679,3.679,0,0,1,1.2-4.824Zm-31.29,16.157c-.169-.224-.322-.46-.475-.694a11,11,0,0,0-.679-.966,1.6,1.6,0,0,0-1.281-.508,14.944,14.944,0,0,1-6.525-.805c-.133-.053-.265-.107-.4-.165a21.564,21.564,0,0,0,7.1-.215,28.028,28.028,0,0,0,3.409-.859c.059-.018.107-.029.125-.038a.947.947,0,0,1,.045.107,12.537,12.537,0,0,0,4.212,5.5,11.867,11.867,0,0,0,5.933,2.42c-1.671,2.148-3.415,2.35-5.743,2.381a.754.754,0,0,0-.329-.463,24.049,24.049,0,0,1-5.4-5.7Zm44.877-6.674a17.782,17.782,0,0,0-4.685,4.081c-1.055,1.25-1.443,1.718-3.35,1.544-1.761-.159-5.136-2.29-6.759-3.315l-.791-.51a.721.721,0,0,0-.979.187c-.242.332-.477.666-.712,1-.478.679-.949,1.352-1.465,1.982a15.58,15.58,0,0,1-3.758,3.143,18.9,18.9,0,0,0-3.778,3.043l-1.3,1.426c-5.122,5.634-5.123,5.637-10.767,4.8a23.685,23.685,0,0,0-6.194.041c-.859.085-1.75.174-2.725.222-.232.013-.463.015-.682.016h-.337a.734.734,0,0,0-.7.576c-.093.391-.179.779-.266,1.163-.177.807-.352,1.6-.587,2.377a11.423,11.423,0,0,1-2.993,5.047,18.226,18.226,0,0,0,2.47-12.242,1.038,1.038,0,0,0-.016-.13h.177q4.753-.018,9.505-.089l.873-.01c3.307-.019,6.164-.039,8.758-4.8,1.757-3.221,4.5-5.868,7.143-8.424,1.341-1.3,2.73-2.637,3.99-4.052.193-.215.4-.422.606-.622a1.266,1.266,0,0,1,1.789-.088,1.185,1.185,0,0,1,.134.141,26.757,26.757,0,0,0,5.279,4.26,10.162,10.162,0,0,1,1.415,1.168c.906.84,1.826,1.705,3.133,1.6,1.209-.107,2.427-1.038,3.946-3.028.759-.99,2.66-2.352,3.256-2.28l.135.231c.051.231.124.461.2.687.233.729.191.755.038.852Zm-32.468,7.663a.717.717,0,0,0,.525-.227.771.771,0,0,0-.011-1.067c-1.5-1.5-2.035-2.809-1.438-3.492l6.345-7.254c.946-1.086,1.894-2.17,2.859-3.237a1.609,1.609,0,0,1,1.483-.578,1.639,1.639,0,0,1,1.181,1.074.732.732,0,0,0,.946.417l.014-.005a.764.764,0,0,0,.4-.985,3.1,3.1,0,0,0-2.284-1.983,3.012,3.012,0,0,0-2.821,1.037c-.966,1.074-1.923,2.163-2.876,3.253l-6.345,7.258c-.569.651-1.562,2.5,1.5,5.584A.724.724,0,0,0,334.232,384.428ZM362.6,370.4a1.319,1.319,0,0,0,.185-.009,2.264,2.264,0,0,0,2.027-2.456h0a2.233,2.233,0,0,0-2.373-2.085h-.017a2.177,2.177,0,0,0-1.5.8,2.325,2.325,0,0,0,.254,3.211A2.173,2.173,0,0,0,362.6,370.4Zm-.565-2.776a.723.723,0,0,1,.508-.267.569.569,0,0,1,.061,0,.769.769,0,0,1,.06,1.533.7.7,0,0,1-.543-.18.789.789,0,0,1-.086-1.088Zm-.281-5.081a.681.681,0,0,0,.613-.742.674.674,0,0,0-.714-.63h-.008a.682.682,0,0,0-.613.742.674.674,0,0,0,.716.629Zm2.792,2.74a1.15,1.15,0,0,0,1.032-1.25,1.137,1.137,0,0,0-1.206-1.062h-.01a1.15,1.15,0,0,0-1.033,1.25,1.137,1.137,0,0,0,1.21,1.061Z" transform="translate(-266.253 -323.744)" fill-rule="evenodd"/>
    </g>
  </g>
</svg>
