<svg xmlns="http://www.w3.org/2000/svg" width="100" height="100" viewBox="0 0 100 100">
  <g id="icon-wines" transform="translate(-27 10)">
    <rect id="icon_area" data-name="icon area" width="100" height="100" transform="translate(27 -10)" opacity="0"/>
    <path id="Path_16462" data-name="Path 16462" d="M194.644,422.673c-.256-.96-.511-1.919-.755-2.882-.124-.5-.5-.49-.735-.5l-11.2.005a.694.694,0,0,0-.8.578c-.568,2.26-1.146,4.517-1.73,6.756a15.282,15.282,0,0,0-.7,3.957,9.967,9.967,0,0,0,3.78,8.2c.748.592,1.531,1.159,2.288,1.708l.257.186a3.656,3.656,0,0,1,1.6,3.164c-.006,2.224,0,3.774,0,5.522V452.7c-.039,0-.077,0-.115,0h-2.918a2.29,2.29,0,0,0-.595.05.785.785,0,0,0-.645.792.827.827,0,0,0,.642.887,1.918,1.918,0,0,0,.479.042h7.931c.044,0,.088,0,.132,0a2.7,2.7,0,0,0,.491-.047.87.87,0,0,0,.609-1.067.879.879,0,0,0-.637-.616,2.541,2.541,0,0,0-.507-.043l-.84,0c-.723,0-1.444,0-2.165.007a.508.508,0,0,0-.078,0,.765.765,0,0,1-.005-.094c0-1.885,0-3.316,0-4.776,0-1.289,0-2.6,0-4.278a2.8,2.8,0,0,1,.608-1.878,12.4,12.4,0,0,1,1.539-1.412,31.931,31.931,0,0,0,2.942-2.358,10.06,10.06,0,0,0,2.553-9.491C195.662,426.488,195.144,424.548,194.644,422.673ZM180.8,428.306l.607-2.358q.618-2.394,1.23-4.788a.559.559,0,0,1,.036-.108.326.326,0,0,1,.105-.01h0c3.116.007,6.235.009,9.406-.005a.215.215,0,0,1,.165.034c.048.034.08.083.1.212.447,1.788.908,3.572,1.369,5.356l.365,1.415a6.1,6.1,0,0,0-6.271.625c-.048.033-.078.048-.079.034a6.118,6.118,0,0,0-7.084-.223l.011-.044.036-.139Zm10.876,2.214a4.261,4.261,0,0,1-2.393-.637,3.887,3.887,0,0,1,2.244-.633h.037a4.018,4.018,0,0,1,2.294.635A3.811,3.811,0,0,1,191.677,430.52Zm-11.154.548a4.662,4.662,0,0,1,3.521-1.832h.115a4.374,4.374,0,0,1,3.094,1.289,6.174,6.174,0,0,0,7.28,1.012c-.033.315-.065.607-.122.9l0,.013a7.619,7.619,0,0,1-3.571,5.367,4.987,4.987,0,0,1-2.8.752,8.088,8.088,0,0,1-2.734-.269,6.827,6.827,0,0,1-4.207-4.334,18.714,18.714,0,0,1-.593-2.778A.159.159,0,0,1,180.523,431.068Zm32.292-10.913a5.242,5.242,0,0,0-2.118-1.86,1.655,1.655,0,0,1-.936-1.486l.019-15.569a.846.846,0,0,0-.765-.729h-.007c-1.306.016-2.613.014-3.921.011l-2.179,0,0,5.076c0,3.637-.006,6.8.018,10.99a1.649,1.649,0,0,1-1.137,1.669,4.932,4.932,0,0,0-3.033,3.932,12.648,12.648,0,0,0-.1,1.933q-.011,14.5-.007,28.963a1.8,1.8,0,0,0,1.781,1.985,1.287,1.287,0,0,0,.16-.009c.443,0,.887,0,1.331-.005s.885-.006,1.328-.006q4.313,0,8.581.01a1.639,1.639,0,0,0,1.547-.82,2.732,2.732,0,0,0,.3-1.232q.021-9.321.009-18.641V423.186A5.339,5.339,0,0,0,212.816,420.155Zm-.984,32.789c0,.056,0,.167-.007.237-.069.007-.18.007-.234.007H206q-2.63,0-5.256.005c-.05,0-.164,0-.233-.006-.007-.071-.007-.188-.007-.239v-7.081q0-11.454.017-22.915a3.118,3.118,0,0,1,1.934-2.95,3.766,3.766,0,0,0,1.945-1.629,3.853,3.853,0,0,0,.369-1.4c.057-.71.027-9.172.013-9.936,0-.03,0-.052,0-.066a.322.322,0,0,1,.048,0c1.023.01,2.048.011,3.091-.042a.276.276,0,0,1,.007.087c0,.225,0,1.243,0,2.55.007,2.74.018,6.88-.012,7.349a3.089,3.089,0,0,0,1.79,2.979,6.21,6.21,0,0,1,1.033.689,3.353,3.353,0,0,1,1.092,2.593q0,1.135,0,2.271c0,1.246,0,2.492.01,3.735a1.684,1.684,0,0,1-.013.2.479.479,0,0,1-.189.02c-2.232-.013-4.464-.012-6.7-.008h-2.63v18.527h2.9c2.134,0,4.267,0,6.4-.01a1.519,1.519,0,0,1,.212.016.5.5,0,0,1,.022.211c-.018,1.115-.015,2.231-.013,3.347Zm0-6.9a.538.538,0,0,1-.153.014c-1.224-.007-2.457-.012-3.688-.012s-2.464,0-3.686.012c-.1,0-.147-.007-.156,0a.588.588,0,0,1-.013-.156q.018-7.228,0-14.456c0-.112.009-.158,0-.163a.517.517,0,0,1,.15-.014c2.433.016,4.9.016,7.33,0a1.02,1.02,0,0,1,.194.013.494.494,0,0,1,.021.19c-.01,1.667-.007,3.338-.005,5.007v2.056l0,2.012c0,1.781,0,3.561.007,5.34C211.838,445.989,211.829,446.035,211.834,446.04Zm-3.892-41.982.005,0h-.005Zm-.037,0c-.886.009-1.774.007-2.686.008h-.411v-1.647h3.106v.181C207.915,403.091,207.917,403.571,207.905,404.057Z" transform="translate(-118.713 -378.873)"/>
  </g>
</svg>
