<svg xmlns="http://www.w3.org/2000/svg" width="100" height="100" viewBox="0 0 100 100">
  <g id="icon-liquors" transform="translate(-27 10)">
    <rect id="icon_area" data-name="icon area" width="100" height="100" transform="translate(27 -10)" opacity="0"/>
    <path id="Path_16448" data-name="Path 16448" d="M825.261,530.674a1,1,0,0,1-.649,1.246,7.807,7.807,0,1,1,4.849-10.516,1,1,0,0,1-.526,1.3h-.008a.988.988,0,0,1-1.292-.533,5.838,5.838,0,1,0-5.358,8.111,5.739,5.739,0,0,0,1.74-.266l.007,0h0A.991.991,0,0,1,825.261,530.674Zm31.731-5.387a21.36,21.36,0,0,1-1.928,2.028c-3.536,3.418-7.1,6.8-10.619,10.245a14.056,14.056,0,0,0-4.088,10.026c-.124,4.2-.034,8.41-.024,12.61,0,1.809.341,2.128,2.178,2.15a16.64,16.64,0,0,1,2.059.031,2.531,2.531,0,0,1,1.3.566,1.264,1.264,0,0,1,.218,1.065c-.054.213-.51.443-.794.455-1.324.053-2.651.034-3.976.034-2.654,0-5.3,0-7.954-.015-.564,0-1.261.146-1.339-.745a1.251,1.251,0,0,1,1.178-1.3,23.094,23.094,0,0,1,2.643-.092c1.562-.034,2.024-.473,2.024-2.041.012-4.253.1-8.509-.02-12.758a14.365,14.365,0,0,0-4.335-10.233c-3.842-3.743-7.722-7.447-11.588-11.165-.489-.475-1.2-.9-.9-1.7.3-.817,1.133-.634,1.8-.634h25.208a5.094,5.094,0,0,1,.7,0q3.276-.006,6.553,0a5.35,5.35,0,0,1,1.172.063C857.254,524.06,857.5,524.646,856.992,525.287Zm-11.773,9.457a12.488,12.488,0,0,1-3.085.4,11.567,11.567,0,0,1-1.373-.082,14.893,14.893,0,0,1-3.661-1.087,12.121,12.121,0,0,0-6.117-1.168c.933.9,1.865,1.8,2.807,2.692a18.136,18.136,0,0,1,5.4,9.584c.044-.129.082-.261.113-.394a15.835,15.835,0,0,1,4.655-8.731C844.375,535.55,844.8,535.15,845.219,534.744Zm8.04-7.652a8.13,8.13,0,0,0,1.336-1.589c-2.529-.249-5.035-.169-7.529-.222h-23.38c-.038.142-.075.295-.113.442.855.8,1.713,1.591,2.555,2.4q1.808,1.734,3.6,3.478a12.849,12.849,0,0,1,7.879,1.084,13.676,13.676,0,0,0,3.32,1,11.833,11.833,0,0,0,6.928-1.48c1.079-1.036,2.151-2.079,3.232-3.113.71-.682,1.459-1.323,2.173-2Z" transform="translate(-758.472 -489.84)"/>
  </g>
</svg>
