<svg xmlns="http://www.w3.org/2000/svg" width="100" height="100" viewBox="0 0 100 100">
  <g id="icon-transfers" transform="translate(-27 10)">
    <rect id="_icon_area" data-name=" icon area" width="100" height="100" transform="translate(27 -10)" opacity="0"/>
    <path id="Path_16466" data-name="Path 16466" d="M120.685,620.882H182.51a3.567,3.567,0,0,1,3.556,3.526c.025,3.2.1,12.921.067,19.682v.177l.153.086a3.392,3.392,0,0,1,1.893,2.787,3.109,3.109,0,0,1-3.1,3.214c-.175.012-5.37.355-8.592.512l-.221.011-.055.216a6.325,6.325,0,0,1-12.217.2l-.063-.222-.231.005c-1.67.031-5.07.053-8.462.053-6.645,0-17.156-.078-23.674-.152l-.23,0-.062.222a6.325,6.325,0,0,1-12.19.008l-.059-.209-.217-.01c-2.212-.1-4.861-.293-5.62-.349a3.485,3.485,0,0,1-3.429-3.439l-.092-7.446,6.553-15.972A5.166,5.166,0,0,1,120.685,620.882Zm21.652,2.037h-12.72v14.727l12.72-.789Zm14.758,0h-12.72v13.8l12.72-.788Zm14.133,0h-12.1v12.867l12.1-.746Zm12.861,11.036c-.017-3.925-.045-7.494-.06-9.341l0-.19a1.522,1.522,0,0,0-1.518-1.505h-9.243V634.9l10.825-.659ZM165.8,649.961h0a4.293,4.293,0,0,0,8.557-.118c.009-.127.015-.212.015-.3a4.294,4.294,0,0,0-8.463-1.032,4.355,4.355,0,0,0-.13,1.032C165.78,649.687,165.788,649.825,165.8,649.961Zm-44.9-.044a4.233,4.233,0,0,0,.39,1.411,4.288,4.288,0,0,0,7.776-.014,4.233,4.233,0,0,0,.385-1.414c.012-.13.02-.261.02-.4a4.294,4.294,0,0,0-8.465-1.023,4.359,4.359,0,0,0-.127,1.023A4.018,4.018,0,0,0,120.9,649.917Zm-9.107-2.722a1.491,1.491,0,0,0,1.545,1.411c2.014.151,3.83.267,5.253.334l.276.013.035-.273a6.326,6.326,0,0,1,12.546,0l.034.257.26,0c6.416.073,16.831.15,23.5.15,2.753,0,6.376-.015,8.264-.048l.261-.005.031-.259a6.326,6.326,0,0,1,12.531-.215l.042.267.27-.014c3.264-.165,8.278-.495,8.316-.5a1.1,1.1,0,0,0,1.187-1.14c-.016-.807-1.321-1.263-1.334-1.268l-.723-.226.005-.753c.018-2.454.019-5.41.011-8.336v-.319l-.318.02-72.064,4.6Zm15.786-9.41V622.919h-6.9a3.213,3.213,0,0,0-2.591,1.659l-5.845,14.244Zm-9.776-1.947V632.72a.54.54,0,0,0-.54-.539h-.1a17.909,17.909,0,0,0-1.416,3.7.541.541,0,0,0,.538.5h.982A.54.54,0,0,0,117.8,635.838Z" transform="translate(-71.665 -586.807)"/>
  </g>
</svg>
