<svg xmlns="http://www.w3.org/2000/svg" width="100" height="100" viewBox="0 0 100 100">
  <g id="icon-snorkeling" transform="translate(-27 10)">
    <rect id="Rectangle_1456" data-name="Rectangle 1456" width="100" height="100" transform="translate(27 -10)" opacity="0"/>
    <g id="ico-snorkeling" transform="translate(1.991 -12)">
      <path id="snorkle" d="M664.378,361.492h-3.449v14.3h3.449Zm-.09,32.059c0-1.283.074-2.567.085-3.85.016-1.881,0-3.761,0-5.747h-3.461c-.059.559-.144,1.029-.153,1.5q-.076,3.942-.12,7.886c-.057,5.836,3.084,10.064,8.688,11.638a28.924,28.924,0,0,0,3.024.516v-3.583c-.621-.14-1.15-.265-1.68-.383A7.645,7.645,0,0,1,664.288,393.551Zm39.368-18.885a4.043,4.043,0,0,0-3.9-3.309c-1.827-.144-3.658-.309-5.487-.321-7.4-.05-14.794-.084-22.19-.044-3.587.02-4.923,1.25-5.575,4.779-.143.773-.294,1.547-.473,2.493h-5.41v3.392H665.6c.059.551.1.787.109,1.027.261,4.185,1.438,5.687,5.482,6.977.407.13.816.257,1.229.363,4.389,1.121,6.042.356,8.145-3.692a30.059,30.059,0,0,1,2.114-3.644c1.547-2.163,3.485-2.116,5.054.056a17.672,17.672,0,0,1,1.206,2.053c.575,1.08,1.074,2.2,1.683,3.26a4.627,4.627,0,0,0,5.035,2.571,31.182,31.182,0,0,0,5.117-1.353,5.473,5.473,0,0,0,3.771-5.144A30.448,30.448,0,0,0,703.656,374.666Zm-4.5,13.258a32.4,32.4,0,0,1-3.38.8,3.226,3.226,0,0,1-3.856-2.038,16.177,16.177,0,0,0-1.074-2.127c-1.016-1.509-2.121-2.955-3.16-4.447a7.508,7.508,0,0,1-.869-1.581c-.448-1.174-.821-2.378-1.325-3.867-.381.927-.658,1.576-.917,2.234a10.158,10.158,0,0,1-2.449,3.748,18.183,18.183,0,0,0-3.036,4.542c-1.979,3.686-2.63,4.024-6.677,2.948-4.148-1.1-5.276-2.744-4.764-7.064.23-1.943.541-3.874.856-5.8a2.488,2.488,0,0,1,2.6-2.339c1.22-.039,2.44-.2,3.659-.191q11.555.123,23.108.3c.549.008,1.1.071,1.646.123a2.409,2.409,0,0,1,2.394,2.141,66.543,66.543,0,0,1,.829,7.828c.057,2.941-.812,3.913-3.582,4.79Zm-18.021,12.954c-1.512-.038-1.591,2.364-3.368,1.548-.077-.324-.148-.676-.243-1.021-.212-.773-.677-1.47-1.5-1.264a2.218,2.218,0,0,0-1.335,1.269,5.111,5.111,0,0,0-.057,4,23.07,23.07,0,0,0,4.389-.073,5.4,5.4,0,0,0,2.689-1.661C682.673,402.63,682.4,401.83,681.135,400.878Z" transform="translate(-607.612 -323.493)"/>
    </g>
  </g>
</svg>
