<svg xmlns="http://www.w3.org/2000/svg" width="100" height="100" viewBox="0 0 100 100">
  <g id="icon-dinning" transform="translate(-27 10)">
    <path id="icon_area" data-name="icon area" d="M0,0H100V100H0Z" transform="translate(27 -10)" opacity="0"/>
    <g id="ico-dinning" transform="translate(2.302 -12)">
      <path id="dinning" d="M188.372,377.89a3.2,3.2,0,0,0-1.9-3.023,3.679,3.679,0,0,0-4.809,1.991,3.313,3.313,0,0,0-.145.422c-.2.661-.229,1.372-.369,2.053-1.388,6.776-2.748,13.557-4.2,20.321a4.589,4.589,0,0,0,3.13,5.392c.454.12.9.275,1.556.481,0,.6.007,1.163.012,1.718.04,5.583.063,11.167.134,16.75a3.339,3.339,0,0,0,3.023,3.209,3.509,3.509,0,0,0,3.533-2.09,6,6,0,0,0,.33-2.046q-.114-21.113-.274-42.227C188.4,379.856,188.446,378.869,188.372,377.89Zm-1.787,1.361c-.017.6-.131,1.208-.128,1.811.019,4.319.056,8.639.086,12.951q.028,3.943.053,7.884.069,10.347.144,20.694c0,.422.02.847-.014,1.267-.079.97-.488,1.372-1.405,1.427a1.632,1.632,0,0,1-1.762-1.3,6.366,6.366,0,0,1-.037-1.123q-.06-8.725-.121-17.454c-.012-1.568-.073-1.525-1.653-1.808-2.721-.492-3.383-1.808-2.911-4.21,1.278-6.512,2.718-12.994,4.04-19.5a7.146,7.146,0,0,1,.88-2.89,1.439,1.439,0,0,1,1.6-.675,1.369,1.369,0,0,1,1.189,1.238,15.632,15.632,0,0,1,.048,1.683ZM173.92,416.139q-.078-10.12-.161-20.247a8.065,8.065,0,0,0,3.887-7.6c-.108-3.909-.066-7.822-.092-11.73,0-.419-.009-.839-.037-1.257a.817.817,0,0,0-.76-.87.846.846,0,0,0-.16.006.9.9,0,0,0-.914.885v.022c-.02.276.01.557.012.836.029,4.239.036,8.476.094,12.714a5.445,5.445,0,0,1-1.6,4.331,21.03,21.03,0,0,1-2.234,1.6,2.1,2.1,0,0,0-.072.353q.123,13.822.243,27.643a5.151,5.151,0,0,1-.186,1.366c-.206.76-.852.959-1.555,1.008a1.3,1.3,0,0,1-1.365-1.024,4.089,4.089,0,0,1-.173-1.237c-.073-8.934-.154-17.867-.18-26.8a1.923,1.923,0,0,0-1.243-2.078,4.274,4.274,0,0,1-2.5-2.905,9.251,9.251,0,0,1-.347-2.347c-.043-4.383-.039-8.764-.053-13.146,0-.757-.338-1.163-.95-1.124-.72.047-.8.541-.779,1.106.007.144-.019.281-.019.42,0,3.031-.017,6.061-.007,9.091,0,1.071.168,2.16.083,3.215a7.3,7.3,0,0,0,3.094,6.96,1.984,1.984,0,0,1,.88,1.764c.009,6.747.071,13.492.121,20.239.016,2.092.029,4.184.071,6.274a3.484,3.484,0,0,0,4.842,3.119,3.3,3.3,0,0,0,2.1-3.324C173.908,420.979,173.931,418.559,173.92,416.139Zm-6.9-39.864c.033,4.273.052,8.548.111,12.822.02,1.385.432,1.572,1.857.874-.032-3.133-.062-6.191-.092-9.259-.016-1.625-.058-3.251-.032-4.875a.9.9,0,0,0-.783-1.011.831.831,0,0,0-.134-.007c-.593-.056-.8.418-.913.9A2.338,2.338,0,0,0,167.019,376.275Zm4.329.071c.05,2.465.111,4.927.144,7.39.032,2.047.036,4.092.052,6.087,1.248.625,1.568.487,1.654-.631.012-.144.014-.288.014-.42q-.015-6.276-.036-12.556a1.816,1.816,0,0,0-.118-.946,1.3,1.3,0,0,0-.873-.491.732.732,0,0,0-.838.61.591.591,0,0,0-.009.124C171.328,375.791,171.343,376.068,171.348,376.346Z" transform="translate(-102.198 -337.218)" fill-rule="evenodd"/>
    </g>
  </g>
</svg>
