<svg xmlns="http://www.w3.org/2000/svg" width="100" height="100" viewBox="0 0 100 100">
  <g id="icon-watersports" transform="translate(-26 10)">
    <rect id="icon_area" data-name="icon area" width="100" height="100" transform="translate(26 -10)" opacity="0"/>
    <g id="ico-watersports" transform="translate(1.003 -12)">
      <path id="watersports" d="M674.48,381.226c2.276,6.023,4.632,12.253,7.176,18.8a.808.808,0,0,0,.48.469.773.773,0,0,0,.274.05.824.824,0,0,0,.394-.1l.264-.146c.176-.1.325-.176.467-.267,2.024-1.284,4.944-3.07,7.76-4.791,9.148-5.592,9.148-5.592,9-6.324a.872.872,0,0,0-.032-.114c-6.4-17.513-28.84-26.883-31.809-27.6a.8.8,0,0,0-.867.346l-.161.251a.818.818,0,0,0-.076.744C669.872,369.028,672.216,375.229,674.48,381.226Zm24.053,7.587c-1.2.819-4.826,3.039-8.079,5.027-2.754,1.684-5.609,3.429-7.632,4.709q-1.671-4.3-3.24-8.436a.451.451,0,0,0,.022-.062c.017-.1,1.7-9.339,9.864-14.2a36.161,36.161,0,0,1,9.068,12.962Zm-10.307-14.1a23.517,23.517,0,0,0-9.631,12.8q-1.323-3.482-2.6-6.873c-2.112-5.59-4.292-11.357-6.624-17.374a67.9,67.9,0,0,1,18.858,11.449Zm-30.246,7.763a3.556,3.556,0,0,0-.7.774,3.764,3.764,0,0,0-.257,3.606c.453,1.049,1.242,2.936,2.007,4.761.663,1.581,1.306,3.117,1.7,4.029a3.979,3.979,0,0,0,3.887,2.575h.018c2.353-.01,4.7-.013,7.058.017a.7.7,0,0,1,.376.134c1.011.94,2,1.9,2.993,2.866l.989.959a2.928,2.928,0,0,0,2.033.906h.053a2.487,2.487,0,0,0,1.772-.817,2.578,2.578,0,0,0-.032-3.646c-.057-.056-.118-.11-.18-.161l-.923-.906c-1.3-1.28-2.654-2.606-4.035-3.859a3.636,3.636,0,0,0-2.15-.847c-.992-.059-1.99-.051-2.954-.044-.545,0-1.091.008-1.631,0h-.058c-.465-1.007-1.214-2.764-1.941-4.468-.343-.806-.676-1.589-.964-2.252a3.47,3.47,0,0,0,.408.006,5.156,5.156,0,0,0,1.959-.218c1.647-.628,3.254-1.4,4.809-2.136l.616-.293a1.756,1.756,0,0,0,.88-1.059,2.293,2.293,0,0,0-.1-1.714,2.078,2.078,0,0,0-2.635-1.028c-.9.382-1.789.781-2.68,1.181l-.277.123a4.973,4.973,0,0,1-2.317.639c-1.212-.056-2.435-.043-3.618-.032-.253,0-.506,0-.76.006a3.623,3.623,0,0,0,1.084-2.543,3.558,3.558,0,0,0-3.532-3.524h-.007a3.658,3.658,0,0,0-2.6,1.092,3.362,3.362,0,0,0-.98,2.418,3.806,3.806,0,0,0,1.219,2.715A3.087,3.087,0,0,0,657.98,382.476Zm4.113.723c1.163-.011,2.363-.023,3.528.031a6.429,6.429,0,0,0,3.051-.78l.275-.124c.881-.394,1.763-.79,2.651-1.167a.473.473,0,0,1,.573.286.715.715,0,0,1-.035.537l-.617.294c-1.526.727-3.1,1.48-4.688,2.084a3.907,3.907,0,0,1-1.353.115c-.271-.007-.542-.012-.8,0-.161.007-.32.005-.513,0H663.8a.807.807,0,0,0-.681.374.821.821,0,0,0-.057.778c.346.767.885,2.033,1.453,3.364.791,1.858,1.61,3.778,2.074,4.755a1.551,1.551,0,0,0,1.389.7c.558.01,1.112,0,1.667,0,.94-.007,1.909-.015,2.849.041a2.082,2.082,0,0,1,1.159.432c1.358,1.232,2.7,2.545,3.988,3.813l.926.909c.552.541.61,1.047.17,1.509a.9.9,0,0,1-.636.314,1.419,1.419,0,0,1-.931-.451l-.986-.958c-1-.97-2-1.94-3.018-2.889a2.285,2.285,0,0,0-1.455-.566c-1.394-.018-2.787-.022-4.181-.022h-2.914a2.349,2.349,0,0,1-2.4-1.59c-.39-.908-1.03-2.44-1.691-4.017-.768-1.831-1.561-3.724-2.016-4.778a2.151,2.151,0,0,1,.127-2.059,2.122,2.122,0,0,1,1.828-.937h0c.538.011,1.087.006,1.63,0Zm-4.676-5.457a2.108,2.108,0,0,1,1.45-.6,1.9,1.9,0,0,1,1.913,1.887v.013a1.989,1.989,0,0,1-.653,1.436,1.585,1.585,0,0,1-1.254.433.543.543,0,0,0-.09-.005.43.43,0,0,0-.072,0,1.464,1.464,0,0,1-1.127-.392,2.168,2.168,0,0,1-.681-1.528,1.739,1.739,0,0,1,.516-1.244ZM700.841,405c-3.988-1.96-8.01-2.728-13.479-2.571a38.636,38.636,0,0,0-7.031,1.036,40.941,40.941,0,0,1-12.783,1.136,15.939,15.939,0,0,1-9.868-4.174.807.807,0,0,0-1.141.036l0,0a.819.819,0,0,0,.039,1.153,17.52,17.52,0,0,0,10.848,4.607,42.707,42.707,0,0,0,13.24-1.165,37.21,37.21,0,0,1,6.747-1c6.5-.192,10.086,1.109,12.722,2.4a.8.8,0,0,0,.353.082.814.814,0,0,0,.356-1.544Zm-3.512,2.492a28.877,28.877,0,0,0-10.349-1.516,46.5,46.5,0,0,0-6.816,1,47.521,47.521,0,0,1-13,1.172,16.176,16.176,0,0,1-7.835-2.465.808.808,0,0,0-1.127.188v0a.818.818,0,0,0,.187,1.137,17.491,17.491,0,0,0,8.688,2.767c.88.047,1.72.07,2.526.07a52.147,52.147,0,0,0,10.873-1.271,45.3,45.3,0,0,1,6.586-.969,27.4,27.4,0,0,1,9.706,1.418.809.809,0,0,0,1.038-.481v0A.817.817,0,0,0,697.329,407.491Z" transform="translate(-603.293 -325.513)"/>
    </g>
  </g>
</svg>
